<svg width="13" height="13" viewBox="0 0 13 13" fill="none" xmlns="http://www.w3.org/2000/svg">
<path d="M11.0442 0.511732C10.7575 0.212721 10.2928 0.212721 10.0062 0.511732L6.54605 4.12112C6.4505 4.22079 6.29559 4.22079 6.20004 4.12112L2.73993 0.511732C2.45329 0.212721 1.98855 0.212721 1.7019 0.511732L1.00988 1.23361C0.723237 1.53262 0.723237 2.01741 1.00988 2.31642L4.46999 5.92581C4.56554 6.02548 4.56554 6.18708 4.46999 6.28675L1.00988 9.89613C0.723238 10.1951 0.723237 10.6799 1.00988 10.9789L1.7019 11.7008C1.98855 11.9998 2.45329 11.9998 2.73993 11.7008L6.20004 8.09144C6.29559 7.99177 6.4505 7.99177 6.54605 8.09144L10.0062 11.7008C10.2928 11.9998 10.7575 11.9998 11.0442 11.7008L11.7362 10.9789C12.0229 10.6799 12.0229 10.1951 11.7362 9.89613L8.27611 6.28675C8.18056 6.18708 8.18056 6.02548 8.27611 5.92581L11.7362 2.31642C12.0229 2.01741 12.0229 1.53262 11.7362 1.23361L11.0442 0.511732Z" fill="#323751" stroke="#323751" stroke-width="0.5"/>
</svg>
