<svg width="285" height="164" viewBox="0 0 285 164" fill="none" xmlns="http://www.w3.org/2000/svg">
<rect width="285" height="164" fill="white"/>
<rect width="285" height="164" fill="#F2F2F2"/>
<path d="M105.432 120.264C105.321 121.794 104.755 122.998 103.732 123.877C102.717 124.756 101.376 125.195 99.709 125.195C97.8861 125.195 96.4505 124.583 95.4023 123.359C94.3607 122.129 93.8398 120.443 93.8398 118.301V117.432C93.8398 116.064 94.0807 114.86 94.5625 113.818C95.0443 112.777 95.7311 111.979 96.623 111.426C97.5215 110.866 98.5632 110.586 99.748 110.586C101.389 110.586 102.71 111.025 103.713 111.904C104.715 112.783 105.295 114.017 105.451 115.605H102.521C102.45 114.688 102.193 114.023 101.75 113.613C101.314 113.197 100.646 112.988 99.748 112.988C98.7715 112.988 98.0391 113.34 97.5508 114.043C97.069 114.74 96.8216 115.824 96.8086 117.295V118.369C96.8086 119.906 97.0397 121.029 97.502 121.738C97.9707 122.448 98.7064 122.803 99.709 122.803C100.614 122.803 101.288 122.598 101.73 122.188C102.18 121.771 102.437 121.13 102.502 120.264H105.432ZM106.73 119.619C106.73 118.571 106.932 117.637 107.336 116.816C107.74 115.996 108.319 115.361 109.074 114.912C109.836 114.463 110.718 114.238 111.721 114.238C113.146 114.238 114.309 114.674 115.207 115.547C116.112 116.419 116.617 117.604 116.721 119.102L116.74 119.824C116.74 121.445 116.288 122.747 115.383 123.73C114.478 124.707 113.264 125.195 111.74 125.195C110.217 125.195 108.999 124.707 108.088 123.73C107.183 122.754 106.73 121.426 106.73 119.746V119.619ZM109.553 119.824C109.553 120.827 109.742 121.595 110.119 122.129C110.497 122.656 111.037 122.92 111.74 122.92C112.424 122.92 112.958 122.66 113.342 122.139C113.726 121.611 113.918 120.771 113.918 119.619C113.918 118.636 113.726 117.874 113.342 117.334C112.958 116.794 112.417 116.523 111.721 116.523C111.031 116.523 110.497 116.794 110.119 117.334C109.742 117.868 109.553 118.698 109.553 119.824ZM121.076 114.434L121.164 115.654C121.919 114.71 122.932 114.238 124.201 114.238C125.321 114.238 126.154 114.567 126.701 115.225C127.248 115.882 127.528 116.865 127.541 118.174V125H124.719V118.242C124.719 117.643 124.589 117.21 124.328 116.943C124.068 116.67 123.635 116.533 123.029 116.533C122.235 116.533 121.639 116.872 121.242 117.549V125H118.42V114.434H121.076ZM134.084 122.92C134.605 122.92 135.028 122.777 135.354 122.49C135.679 122.204 135.848 121.823 135.861 121.348H138.508C138.501 122.064 138.306 122.721 137.922 123.32C137.538 123.913 137.01 124.375 136.34 124.707C135.676 125.033 134.94 125.195 134.133 125.195C132.622 125.195 131.431 124.717 130.559 123.76C129.686 122.796 129.25 121.468 129.25 119.775V119.59C129.25 117.962 129.683 116.663 130.549 115.693C131.415 114.723 132.603 114.238 134.113 114.238C135.435 114.238 136.493 114.616 137.287 115.371C138.088 116.12 138.495 117.119 138.508 118.369H135.861C135.848 117.822 135.679 117.38 135.354 117.041C135.028 116.696 134.598 116.523 134.064 116.523C133.407 116.523 132.909 116.764 132.57 117.246C132.238 117.721 132.072 118.496 132.072 119.57V119.863C132.072 120.951 132.238 121.732 132.57 122.207C132.902 122.682 133.407 122.92 134.084 122.92ZM143.098 125H140.266V110H143.098V125ZM151.76 123.926C151.063 124.772 150.1 125.195 148.869 125.195C147.736 125.195 146.87 124.87 146.271 124.219C145.679 123.568 145.376 122.614 145.363 121.357V114.434H148.186V121.26C148.186 122.36 148.687 122.91 149.689 122.91C150.646 122.91 151.304 122.578 151.662 121.914V114.434H154.494V125H151.838L151.76 123.926ZM159.67 125H156.848V114.434H159.67V125ZM158.84 110.146H161.916L159.211 113.174H156.916L158.84 110.146ZM161.672 119.639C161.672 117.992 162.04 116.68 162.775 115.703C163.518 114.727 164.53 114.238 165.812 114.238C166.841 114.238 167.691 114.622 168.361 115.391V110H171.193V125H168.645L168.508 123.877C167.805 124.756 166.9 125.195 165.793 125.195C164.549 125.195 163.55 124.707 162.795 123.73C162.046 122.747 161.672 121.383 161.672 119.639ZM164.494 119.844C164.494 120.833 164.667 121.592 165.012 122.119C165.357 122.646 165.858 122.91 166.516 122.91C167.388 122.91 168.003 122.542 168.361 121.807V117.637C168.01 116.901 167.401 116.533 166.535 116.533C165.174 116.533 164.494 117.637 164.494 119.844ZM172.941 119.619C172.941 118.571 173.143 117.637 173.547 116.816C173.951 115.996 174.53 115.361 175.285 114.912C176.047 114.463 176.929 114.238 177.932 114.238C179.357 114.238 180.52 114.674 181.418 115.547C182.323 116.419 182.827 117.604 182.932 119.102L182.951 119.824C182.951 121.445 182.499 122.747 181.594 123.73C180.689 124.707 179.475 125.195 177.951 125.195C176.428 125.195 175.21 124.707 174.299 123.73C173.394 122.754 172.941 121.426 172.941 119.746V119.619ZM175.764 119.824C175.764 120.827 175.952 121.595 176.33 122.129C176.708 122.656 177.248 122.92 177.951 122.92C178.635 122.92 179.169 122.66 179.553 122.139C179.937 121.611 180.129 120.771 180.129 119.619C180.129 118.636 179.937 117.874 179.553 117.334C179.169 116.794 178.628 116.523 177.932 116.523C177.242 116.523 176.708 116.794 176.33 117.334C175.952 117.868 175.764 118.698 175.764 119.824Z" fill="black"/>
<circle cx="139" cy="63" r="30" fill="#323751"/>
<path d="M125 57.9239L140.265 72L172 35" stroke="white" stroke-width="8"/>
<path d="M163 45.5L172 35" stroke="#323751" stroke-width="8"/>
</svg>
